# xmcd
#
# Track frame offsets:
#	150
#	17019
#	33690
#	47849
#	61532
#	73696
#	91006
#	111331
#	124106
#	141507
#	159254
#	177054
#	193360
#	205669
#	222272
#	238357
#	255986
#	272177
#
# Disc length: 3852 seconds
#
# Revision: 1
# Processed by: cddbd v1.5.1PL2 Copyright (c) Steve Scherf et al.
# Submitted via: EasyCDDAExtractor 9.0.0.1
#
DISCID=080f0a12
DTITLE=Rick Nunes and Ricardi
DYEAR=2005
DGENRE=Country
TTITLE0=Ajoelhour Tem Que Rezar
TTITLE1=Papo Da Hora
TTITLE2=Cowboy Gostosao
TTITLE3=E No Bailao
TTITLE4=Essa E Pra Casar
TTITLE5=Chega De Sofrer
TTITLE6=Isso E Lambadao
TTITLE7=Mulher Danada
TTITLE8=De Coracao Pra Coracao
TTITLE9=I´M Over Stars
TTITLE10=Minha Inspiracao
TTITLE11=Te Aceitar De Novo
TTITLE12=Motoqueiro
TTITLE13=Te Quero Amor
TTITLE14=Meu Coracao Ja Cansou De Chorar
TTITLE15=Corpo E Alma
TTITLE16=Bonus 1
TTITLE17=Bonus 2
EXTD=
EXTT0=
EXTT1=
EXTT2=
EXTT3=
EXTT4=
EXTT5=
EXTT6=
EXTT7=
EXTT8=
EXTT9=
EXTT10=
EXTT11=
EXTT12=
EXTT13=
EXTT14=
EXTT15=
EXTT16=
EXTT17=
PLAYORDER=
